# xmcd CD database file
#
# Track frame offsets:
#	150
#	16072
#	30661
#	45132
#	59502
#	75429
#	91144
#	108346
#	123503
#	141611
#	154605
#	177591
#	191725
#	206229
#	229523
#	250369
#	259876
#	271136
#	280957
#	296520
#	312449
#	326607
#	340392
#
# Disc length: 4704 seconds
#
# Revision: 0
# Processed by: cddbd v1.5.2PL0 Copyright (c) Steve Scherf et al.
# Submitted via: CDex 1.51
#
DISCID=50125e17
DTITLE=Various Artist - 07
DYEAR=2007
DGENRE=Country
TTITLE0=Lonely Too
TTITLE1=Katie Wants A Fast One
TTITLE2=Hillbilly Nation
TTITLE3=Let The Light Shine On You
TTITLE4=You Don't You Want
TTITLE5=Irish Stew
TTITLE6=Love Train
TTITLE7=Save A Horse(Ride A Cowboy)
TTITLE8=Wild Wild West
TTITLE9=Betty Lou's Going Out Tonight
TTITLE10=Funky Cowboy
TTITLE11=Guitar Chadhilack
TTITLE12=All American Bluegrass Girl
TTITLE13=Dancing In The Street
TTITLE14=A'int Going Down
TTITLE15=AC-cent Tchu-ate
TTITLE16=Tall Tall Tree
TTITLE17=Little Bitty
TTITLE18=5,6,7,8
TTITLE19=Boogie Woogie Fiddle Country Blues
TTITLE20=Roll Back The Rug
TTITLE21=Good Little Girls
TTITLE22=Love Someone Like Me
EXTD=YEAR: 2007
EXTT0=
EXTT1=
EXTT2=
EXTT3=
EXTT4=
EXTT5=
EXTT6=
EXTT7=
EXTT8=
EXTT9=
EXTT10=
EXTT11=
EXTT12=
EXTT13=
EXTT14=
EXTT15=
EXTT16=
EXTT17=
EXTT18=
EXTT19=
EXTT20=
EXTT21=
EXTT22=
PLAYORDER=
